<?xml version="1.0" encoding="UTF-8"?>
<svg width="92px" height="64px" viewBox="0 0 92 64" version="1.1" xmlns="http://www.w3.org/2000/svg" xmlns:xlink="http://www.w3.org/1999/xlink">
    <title>76EB414D-ED83-4F71-8E20-F86D21C0BA5C</title>
    <defs>
        <linearGradient x1="0.975196678%" y1="50%" x2="100%" y2="50%" id="linearGradient-1">
            <stop stop-color="#FFAA00" stop-opacity="0" offset="0%"></stop>
            <stop stop-color="#FFAA00" offset="100%"></stop>
        </linearGradient>
    </defs>
    <g id="Moodboard" stroke="none" stroke-width="1" fill="none" fill-rule="evenodd">
        <g id="Mobile_ClientTestimonials_List" transform="translate(-159.000000, -4196.000000)">
            <g id="Body" transform="translate(-292.000000, 1120.000000)">
                <g id="Info" transform="translate(322.000000, 2676.000000)">
                    <g id="Item" transform="translate(0.000000, 400.000000)">
                        <g id="Icon" transform="translate(129.000000, 0.000000)">
                            <rect id="Base" x="0" y="4" width="56" height="56"></rect>
                            <g id="profile" transform="translate(0.000000, 4.000000)" fill-rule="nonzero">
                                <path d="M42.875,56 L13.125,56 C5.887875,56 0,50.112125 0,42.875 L0,13.125 C0,5.887875 5.887875,0 13.125,0 L42.875,0 C50.112125,0 56,5.887875 56,13.125 L56,42.875 C56,50.112125 50.112125,56 42.875,56 Z M13.125,4.375 C8.30025,4.375 4.375,8.30025 4.375,13.125 L4.375,42.875 C4.375,47.69975 8.30025,51.625 13.125,51.625 L42.875,51.625 C47.69975,51.625 51.625,47.69975 51.625,42.875 L51.625,13.125 C51.625,8.30025 47.69975,4.375 42.875,4.375 L13.125,4.375 Z M47.25,14.109375 C47.25,12.9012188 46.2706563,11.921875 45.0625,11.921875 L10.9375,11.921875 C9.72934375,11.921875 8.75,12.9012188 8.75,14.109375 C8.75,15.3175312 9.72934375,16.296875 10.9375,16.296875 L45.0625,16.296875 C46.2706563,16.296875 47.25,15.3175312 47.25,14.109375 Z M16.7061562,35.328125 C13.0875937,35.328125 10.1436562,32.3841875 10.1436562,28.765625 C10.1436562,25.1470625 13.0875937,22.203125 16.7061562,22.203125 C20.3247188,22.203125 23.2686562,25.1470625 23.2686562,28.765625 C23.2686562,32.3841875 20.3247188,35.328125 16.7061562,35.328125 Z M16.7061562,26.578125 C15.4999688,26.578125 14.5186562,27.5594375 14.5186562,28.765625 C14.5186562,29.9718125 15.4999688,30.953125 16.7061562,30.953125 C17.9123437,30.953125 18.8936562,29.9718125 18.8936562,28.765625 C18.8936562,27.5594375 17.9123437,26.578125 16.7061562,26.578125 Z M47.25,26.46875 C47.25,25.2605938 46.2706563,24.28125 45.0625,24.28125 L30.1875,24.28125 C28.9793438,24.28125 28,25.2605938 28,26.46875 C28,27.6769062 28.9793438,28.65625 30.1875,28.65625 L45.0625,28.65625 C46.2706563,28.65625 47.25,27.6769062 47.25,26.46875 Z M47.25,34.125 C47.25,32.9168437 46.2706563,31.9375 45.0625,31.9375 L30.1875,31.9375 C28.9793438,31.9375 28,32.9168437 28,34.125 C28,35.3331563 28.9793438,36.3125 30.1875,36.3125 L45.0625,36.3125 C46.2706563,36.3125 47.25,35.3331563 47.25,34.125 Z M41.78125,41.78125 C41.78125,40.5730937 40.8019063,39.59375 39.59375,39.59375 L30.1875,39.59375 C28.9793438,39.59375 28,40.5730937 28,41.78125 C28,42.9894063 28.9793438,43.96875 30.1875,43.96875 L39.59375,43.96875 C40.8019063,43.96875 41.78125,42.9894063 41.78125,41.78125 Z" id="Shape" fill="#22284C"></path>
                                <path d="M10.9380469,44.078125 C10.3454531,44.078125 9.75482812,43.8388125 9.32334375,43.3669688 C8.50795312,42.4755625 8.56964062,41.0918594 9.46115625,40.2764687 C11.253375,38.6371563 13.580875,37.734375 16.0150156,37.734375 L17.3972969,37.734375 C19.8313281,37.734375 22.1588281,38.6371563 23.9511563,40.2764687 C24.8426719,41.0918594 24.9043594,42.4754531 24.0889688,43.3669687 C23.2735781,44.258375 21.8897656,44.3200625 20.9984688,43.5047813 C20.0146406,42.6049531 18.7357188,42.109375 17.3972969,42.109375 L16.0150156,42.109375 C14.6765937,42.109375 13.3976719,42.6049531 12.4138437,43.5047813 C11.9941719,43.8886875 11.4653437,44.078125 10.9380469,44.078125 L10.9380469,44.078125 Z" id="Path" fill="#FFAA00"></path>
                            </g>
                            <circle id="Oval" fill="url(#linearGradient-1)" opacity="0.200000003" cx="60" cy="32" r="32"></circle>
                        </g>
                    </g>
                </g>
            </g>
        </g>
    </g>
</svg>