<?xml version="1.0" encoding="UTF-8"?>
<svg width="92px" height="64px" viewBox="0 0 92 64" version="1.1" xmlns="http://www.w3.org/2000/svg" xmlns:xlink="http://www.w3.org/1999/xlink">
    <title>ACE72EF6-2C19-46DD-8DA9-8F3B5B63FA5E</title>
    <defs>
        <linearGradient x1="0%" y1="50%" x2="100%" y2="50%" id="linearGradient-1">
            <stop stop-color="#FF5A5F" stop-opacity="0" offset="0%"></stop>
            <stop stop-color="#FF5A5F" offset="100%"></stop>
        </linearGradient>
    </defs>
    <g id="Moodboard" stroke="none" stroke-width="1" fill="none" fill-rule="evenodd">
        <g id="Mobile_ClientTestimonials_List" transform="translate(-159.000000, -3796.000000)">
            <g id="Body" transform="translate(-292.000000, 1120.000000)">
                <g id="Info" transform="translate(322.000000, 2676.000000)">
                    <g id="Icon" transform="translate(129.000000, 0.000000)">
                        <rect id="Base" x="0" y="4" width="56" height="56"></rect>
                        <circle id="Oval" fill="url(#linearGradient-1)" opacity="0.200000003" cx="60" cy="32" r="32"></circle>
                        <g id="planning" transform="translate(0.000000, 4.000000)" fill-rule="nonzero">
                            <path d="M23.734375,56 L13.125,56 C5.887875,56 0,50.112125 0,42.875 L0,13.125 C0,5.887875 5.887875,0 13.125,0 L33.25,0 C40.487125,0 46.375,5.887875 46.375,13.125 L46.375,20.234375 C46.375,21.4425312 45.3956563,22.421875 44.1875,22.421875 C42.9793437,22.421875 42,21.4425312 42,20.234375 L42,13.125 C42,8.30025 38.07475,4.375 33.25,4.375 L13.125,4.375 C8.30025,4.375 4.375,8.30025 4.375,13.125 L4.375,42.875 C4.375,47.69975 8.30025,51.625 13.125,51.625 L23.734375,51.625 C24.9425312,51.625 25.921875,52.6043437 25.921875,53.8125 C25.921875,55.0206563 24.9425312,56 23.734375,56 Z M35,10.71875 C35,9.51059375 34.0206563,8.53125 32.8125,8.53125 C31.6043438,8.53125 30.625,9.51059375 30.625,10.71875 C30.625,12.5280312 29.1530312,14 27.34375,14 L19.03125,14 C17.2219688,14 15.75,12.5280312 15.75,10.71875 C15.75,9.51059375 14.7706562,8.53125 13.5625,8.53125 C12.3543438,8.53125 11.375,9.51059375 11.375,10.71875 C11.375,14.9404063 14.8095937,18.375 19.03125,18.375 L27.34375,18.375 C31.5654063,18.375 35,14.9404063 35,10.71875 Z M56,41.234375 C56,33.0926094 49.3761406,26.46875 41.234375,26.46875 C33.0926094,26.46875 26.46875,33.0926094 26.46875,41.234375 C26.46875,49.3761406 33.0926094,56 41.234375,56 C49.3761406,56 56,49.3761406 56,41.234375 Z M51.625,41.234375 C51.625,46.9637656 46.9637656,51.625 41.234375,51.625 C35.5049844,51.625 30.84375,46.9637656 30.84375,41.234375 C30.84375,35.5049844 35.5049844,30.84375 41.234375,30.84375 C46.9637656,30.84375 51.625,35.5049844 51.625,41.234375 Z" id="Shape" fill="#22284C"></path>
                            <path d="M44.9517031,43.421875 L41.234375,43.421875 C40.0262187,43.421875 39.046875,42.4425313 39.046875,41.234375 L39.046875,36.75 C39.046875,35.5418437 40.0262187,34.5625 41.234375,34.5625 C42.4425313,34.5625 43.421875,35.5418437 43.421875,36.75 L43.421875,39.046875 L44.9517031,39.046875 C46.1598594,39.046875 47.1392031,40.0262187 47.1392031,41.234375 C47.1392031,42.4425313 46.1598594,43.421875 44.9517031,43.421875 Z" id="Path" fill="#FF5A5F"></path>
                        </g>
                    </g>
                </g>
            </g>
        </g>
    </g>
</svg>