<?xml version="1.0" encoding="UTF-8"?>
<svg width="48px" height="48px" viewBox="0 0 48 48" version="1.1" xmlns="http://www.w3.org/2000/svg" xmlns:xlink="http://www.w3.org/1999/xlink">
    <title>3BED51F5-7635-41E5-975E-AE953C8C9ED4</title>
    <g id="Moodboard" stroke="none" stroke-width="1" fill="none" fill-rule="evenodd">
        <g id="Desktop_Calculator_Step-2" transform="translate(-651.000000, -501.000000)">
            <g id="Silde" transform="translate(0.000000, 100.000000)">
                <g id="Par-Jour" transform="translate(405.000000, 377.000000)">
                    <g id="Calandar" transform="translate(246.000000, 24.000000)">
                        <rect id="Rectangle" x="0" y="0" width="48" height="48"></rect>
                        <path d="M32.012192,34 C33.1099921,34 34.0000001,34.8954667 34.0000001,36 C34.0000001,37.1045333 33.1099921,38 32.012192,38 L32.012192,38 L31.9878082,38 C30.890008,38 30.0000001,37.1045333 30.0000001,36 C30.0000001,34.8954667 30.890008,34 31.9878082,34 L31.9878082,34 Z M24.0123237,34 C25.1100511,34 26.0000001,34.8954667 26.0000001,36 C26.0000001,37.1045333 25.1100511,38 24.0123237,38 L23.9876765,38 C22.8899491,38 22.0000001,37.1045333 22.0000001,36 C22.0000001,34.8954667 22.8899491,34 23.9876765,34 L24.0123237,34 Z M16.0122842,34 C17.1100599,34 18.0000001,34.8954667 18.0000001,36 C18.0000001,37.1045333 17.1100599,38 16.0122842,38 L16.0122842,38 L15.987716,38 C14.8899402,38 14.0000001,37.1045333 14.0000001,36 C14.0000001,34.8954667 14.8899402,34 15.987716,34 L15.987716,34 Z M16.0122842,26 C17.1100599,26 18.0000001,26.8954667 18.0000001,28 C18.0000001,29.1045333 17.1100599,30 16.0122842,30 L15.987716,30 C14.8899402,30 14.0000001,29.1045333 14.0000001,28 C14.0000001,26.8954667 14.8899402,26 15.987716,26 L16.0122842,26 Z M24.0123237,26 C25.1100511,26 26.0000001,26.8954667 26.0000001,28 C26.0000001,29.1045333 25.1100511,30 24.0123237,30 L24.0123237,30 L23.9876765,30 C22.8899491,30 22.0000001,29.1045333 22.0000001,28 C22.0000001,26.8954667 22.8899491,26 23.9876765,26 L23.9876765,26 Z M32.012192,26 C33.1099921,26 34.0000001,26.8954667 34.0000001,28 C34.0000001,29.1045333 33.1099921,30 32.012192,30 L32.012192,30 L31.9878082,30 C30.890008,30 30.0000001,29.1045333 30.0000001,28 C30.0000001,26.8954667 30.890008,26 31.9878082,26 L31.9878082,26 Z M40.0000001,18 C41.1045696,18 42.0000001,18.8954305 42.0000001,20 C42.0000001,21.1045695 41.1045696,22 40.0000001,22 L8.00000008,22 C6.89543058,22 6.00000008,21.1045695 6.00000008,20 C6.00000008,18.8954305 6.89543058,18 8.00000008,18 L40.0000001,18 Z" id="Combined-Shape" fill="#FF5A5F" opacity="0.4"></path>
                        <path d="M32.0000001,2 C33.1045696,2 34.0000001,2.8954305 34.0000001,4 L34.0007663,6.06753485 C40.1880597,6.62982337 44.0200487,10.6733446 44.0001471,17.0739416 L44.0001471,17.0739416 L44.0001471,34.9075512 C44.0001471,41.8262165 39.5264928,46.0000001 32.4580001,46.0000001 L32.4580001,46.0000001 L15.54192,46.0000001 C8.48017884,46.0000001 4,41.7569907 4,34.759805 L4,34.759805 L4,17.0739416 C4,10.6809847 7.83612634,6.63893407 14.0001883,6.0694406 L14.0000001,4 C14.0000001,2.8954305 14.8954306,2 16.0000001,2 C17.1045696,2 18.0000001,2.8954305 18.0000001,4 L18,6 L30,6 L30.0000001,4 C30.0000001,2.8954305 30.8954306,2 32.0000001,2 Z M30,10 L18,10 L18.0000001,12 C18.0000001,13.1045695 17.1045696,14 16.0000001,14 C14.8954306,14 14.0000001,13.1045695 14.0000001,12 L13.9997997,10.0887723 C10.0803564,10.5652242 8,12.9522811 8,17.0739416 L8,17.0739416 L8,34.759805 C8,39.4977364 10.6421315,42.0000001 15.54192,42.0000001 L15.54192,42.0000001 L32.4580001,42.0000001 C37.3769763,42.0000001 40.0001388,39.5526915 40.0001388,34.9075512 L40.0001388,34.9075512 L40.0001388,17.0677033 C40.0129684,12.9375142 37.9392225,10.5553432 34.0011244,10.0860487 L34.0000001,12 C34.0000001,13.1045695 33.1045696,14 32.0000001,14 C30.8954306,14 30.0000001,13.1045695 30.0000001,12 L30,10 Z" id="Combined-Shape" fill="#FF5A5F"></path>
                    </g>
                </g>
            </g>
        </g>
    </g>
</svg>