<?xml version="1.0" encoding="UTF-8"?>
<svg width="24px" height="24px" viewBox="0 0 24 24" version="1.1" xmlns="http://www.w3.org/2000/svg" xmlns:xlink="http://www.w3.org/1999/xlink">
    <title>71291C78-5EA0-475F-8E9F-2D14A9A6B787</title>
    <g id="Moodboard" stroke="none" stroke-width="1" fill="none" fill-rule="evenodd">
        <g id="Desktop_Lehibou-Partenaires" transform="translate(-405.000000, -486.000000)" fill="#FF5A5F">
            <g id="Checklist" transform="translate(405.000000, 396.000000)">
                <g id="Item" transform="translate(0.000000, 88.000000)">
                    <g id="Check" transform="translate(0.000000, 2.000000)">
                        <path d="M12,1 C18.075171,1 23,5.92519436 23,11.9999789 C23,18.0747983 18.0751784,23 12,23 C5.92553408,23 1,18.0744536 1,11.9999789 C1,5.92553902 5.92554143,1 12,1 Z M15.7071068,9.29289322 C15.3165825,8.90236893 14.6834175,8.90236893 14.2928932,9.29289322 L14.2928932,9.29289322 L11,12.585 L9.70710678,11.2928932 L9.61289944,11.2097046 C9.22060824,10.9046797 8.65337718,10.9324093 8.29289322,11.2928932 C7.90236893,11.6834175 7.90236893,12.3165825 8.29289322,12.7071068 L8.29289322,12.7071068 L10.2928932,14.7071068 L10.3871006,14.7902954 C10.7793918,15.0953203 11.3466228,15.0675907 11.7071068,14.7071068 L11.7071068,14.7071068 L15.7071068,10.7071068 L15.7902954,10.6128994 C16.0953203,10.2206082 16.0675907,9.65337718 15.7071068,9.29289322 Z" id="Combined-Shape"></path>
                    </g>
                </g>
            </g>
        </g>
    </g>
</svg>