<?xml version="1.0" encoding="UTF-8"?>
<svg width="24px" height="24px" viewBox="0 0 24 24" version="1.1" xmlns="http://www.w3.org/2000/svg" xmlns:xlink="http://www.w3.org/1999/xlink">
    <title>104B901E-D4CD-4FEB-BF2A-9C1A18018426</title>
    <g id="Moodboard" stroke="none" stroke-width="1" fill="none" fill-rule="evenodd">
        <g id="Desktop_Calculator_Step-2" transform="translate(-1491.000000, -38.000000)">
            <g id="Facebook" transform="translate(1491.000000, 38.000000)">
                <g id="Group-3" fill="#1877F2">
                    <path d="M24,12.0733361 C24,5.40541178 18.6274219,0 12,0 C5.37257813,0 0,5.40541178 0,12.0733361 C0,18.0994871 4.38822656,23.094264 10.125,24 L10.125,15.5632848 L7.078125,15.5632848 L7.078125,12.0733361 L10.125,12.0733361 L10.125,9.41342923 C10.125,6.38754937 11.9165156,4.71614691 14.6575781,4.71614691 C15.9704766,4.71614691 17.34375,4.95195425 17.34375,4.95195425 L17.34375,7.92312681 L15.8305781,7.92312681 C14.3398828,7.92312681 13.875,8.85378766 13.875,9.8085716 L13.875,12.0733361 L17.203125,12.0733361 L16.6710938,15.5632848 L13.875,15.5632848 L13.875,24 C19.6117734,23.094264 24,18.0994871 24,12.0733361" id="Fill-1"></path>
                </g>
                <path d="M16.6710938,15.46875 L17.203125,12 L13.875,12 L13.875,9.74899219 C13.875,8.80000781 14.3398828,7.875 15.8305781,7.875 L17.34375,7.875 L17.34375,4.921875 C17.34375,4.921875 15.9704766,4.6875 14.6575781,4.6875 C11.9165156,4.6875 10.125,6.34875 10.125,9.35625 L10.125,12 L7.078125,12 L7.078125,15.46875 L10.125,15.46875 L10.125,23.8542187 C10.7359453,23.9500781 11.362125,24 12,24 C12.637875,24 13.2640547,23.9500781 13.875,23.8542187 L13.875,15.46875 L16.6710938,15.46875" id="Fill-4" fill="#FFFFFF"></path>
            </g>
        </g>
    </g>
</svg>