<?xml version="1.0" encoding="UTF-8"?>
<svg width="32px" height="32px" viewBox="0 0 32 32" version="1.1" xmlns="http://www.w3.org/2000/svg" xmlns:xlink="http://www.w3.org/1999/xlink">
    <title>A7FD346E-FBCE-43C5-B521-5593C96DAEDC</title>
    <g id="Moodboard" stroke="none" stroke-width="1" fill="none" fill-rule="evenodd">
        <g id="Desktop_Lehibou-Partenaires" transform="translate(-517.000000, -1494.000000)">
            <g id="Body" transform="translate(0.000000, 828.000000)">
                <g id="Partner-1" transform="translate(405.000000, 368.000000)">
                    <g id="Plus" transform="translate(112.000000, 298.000000)">
                        <rect id="Base" x="0" y="0" width="32" height="32"></rect>
                        <path d="M24,2.66666667 C26.9455187,2.66666667 29.3333333,5.05448133 29.3333333,8 L29.3333333,24 C29.3333333,26.9455187 26.9455187,29.3333333 24,29.3333333 L8,29.3333333 C5.05448133,29.3333333 2.66666667,26.9455187 2.66666667,24 L2.66666667,8 C2.66666667,5.05448133 5.05448133,2.66666667 8,2.66666667 L24,2.66666667 Z M16,10.6666667 C15.2636203,10.6666667 14.6666667,11.2636203 14.6666667,12 L14.6666667,12 L14.6656667,14.6666667 L12,14.6666667 L11.8445052,14.675637 C11.1813869,14.7526571 10.6666667,15.3162189 10.6666667,16 C10.6666667,16.7363797 11.2636203,17.3333333 12,17.3333333 L12,17.3333333 L14.6656667,17.3326667 L14.6666667,20 L14.675637,20.1554948 C14.7526571,20.8186131 15.3162189,21.3333333 16,21.3333333 C16.7363797,21.3333333 17.3333333,20.7363797 17.3333333,20 L17.3333333,20 L17.3326667,17.3326667 L20,17.3333333 L20.1554948,17.324363 C20.8186131,17.2473429 21.3333333,16.6837811 21.3333333,16 C21.3333333,15.2636203 20.7363797,14.6666667 20,14.6666667 L20,14.6666667 L17.3326667,14.6666667 L17.3333333,12 L17.324363,11.8445052 C17.2473429,11.1813869 16.6837811,10.6666667 16,10.6666667 Z" id="Combined-Shape" fill="#FF5A5F"></path>
                    </g>
                </g>
            </g>
        </g>
    </g>
</svg>