<?xml version="1.0" encoding="UTF-8"?>
<svg width="72px" height="72px" viewBox="0 0 72 72" version="1.1" xmlns="http://www.w3.org/2000/svg" xmlns:xlink="http://www.w3.org/1999/xlink">
    <title>DD921B26-F98C-465F-8B19-A43DCA1B16EB</title>
    <g id="Moodboard" stroke="none" stroke-width="1" fill="none" fill-rule="evenodd">
        <g id="Desktop_Calculator_Step-2" transform="translate(-544.000000, -1147.000000)">
            <g id="Body" transform="translate(0.000000, 900.000000)">
                <g id="Items" transform="translate(405.000000, 247.000000)">
                    <g id="Target" transform="translate(139.000000, 0.000000)">
                        <rect id="Rectangle" x="0" y="0" width="72" height="72"></rect>
                        <path d="M36,9 C50.9116882,9 63,21.0883118 63,36 C63,50.9116882 50.9116882,63 36,63 C21.0883118,63 9,50.9116882 9,36 C9,21.0883118 21.0883118,9 36,9 Z M36,15 C24.4020203,15 15,24.4020203 15,36 C15,47.5979797 24.4020203,57 36,57 C47.5979797,57 57,47.5979797 57,36 C57,24.4020203 47.5979797,15 36,15 Z M36,21 C44.2842712,21 51,27.7157288 51,36 C51,44.2842712 44.2842712,51 36,51 C27.7157288,51 21,44.2842712 21,36 C21,27.7157288 27.7157288,21 36,21 Z M36,27 C31.0294373,27 27,31.0294373 27,36 C27,40.9705627 31.0294373,45 36,45 C40.9705627,45 45,40.9705627 45,36 C45,31.0294373 40.9705627,27 36,27 Z" id="Combined-Shape" fill="#FF5A5F" fill-rule="nonzero" opacity="0.5"></path>
                        <path d="M67.5909903,28.4090097 C68.3897899,29.2078094 68.4624081,30.4578005 67.8088447,31.338635 L67.5909903,31.5909903 L63.183,36 L67.5909903,40.4090097 C68.3897899,41.2078094 68.4624081,42.4578005 67.8088447,43.338635 L67.5909903,43.5909903 C66.7921906,44.3897899 65.5421995,44.4624081 64.661365,43.8088447 L64.4090097,43.5909903 L59.819,39 L36,39 C34.3431458,39 33,37.6568542 33,36 C33,34.3431458 34.3431458,33 36,33 L59.818,33 L64.4090097,28.4090097 C65.2876894,27.5303301 66.7123106,27.5303301 67.5909903,28.4090097 Z" id="Combined-Shape" fill="#FF5A5F"></path>
                    </g>
                </g>
            </g>
        </g>
    </g>
</svg>