<?xml version="1.0" encoding="UTF-8"?>
<svg width="106px" height="32px" viewBox="0 0 106 32" version="1.1" xmlns="http://www.w3.org/2000/svg" xmlns:xlink="http://www.w3.org/1999/xlink">
    <title>3750D3E1-BAF1-4552-8B06-EDF3664B0577</title>
    <g id="Moodboard" stroke="none" stroke-width="1" fill="none" fill-rule="evenodd">
        <g id="Desktop_ClientTestimonials_List" transform="translate(-405.000000, -156.000000)">
            <g id="Amazon_logo" transform="translate(405.000000, 156.000000)">
                <path d="M65.7356758,24.9714628 C59.5781457,29.5100503 50.6531804,31.9315507 42.9689558,31.9315507 C32.1944275,31.9315507 22.4945897,27.9464519 15.1562872,21.3184572 C14.5797404,20.7972546 15.0963242,20.0869499 15.7881844,20.4928371 C23.707644,25.1006103 33.4997351,27.8726527 43.6146903,27.8726527 C50.4363995,27.8726527 57.940747,26.4612609 64.8408721,23.5324005 C65.8832699,23.0896085 66.7550103,24.2150326 65.7356758,24.9714628" id="path8" fill="#FF9900"></path>
                <path d="M68.2955486,22.0426013 C67.5114405,21.037102 63.0927788,21.5675253 61.1094559,21.8027571 C60.5052313,21.8765563 60.4129875,21.3507433 60.957245,20.9725256 C64.4764938,18.4956768 70.2511989,19.2105971 70.9246061,20.0408244 C71.5980122,20.8756673 70.7493362,26.6642098 67.4422559,29.4270241 C66.9348938,29.8513621 66.4505939,29.6253584 66.6766019,29.0626458 C67.4191947,27.2084673 69.084267,23.0527131 68.2955486,22.0426013" id="path10" fill="#FF9900"></path>
                <path d="M61.2478273,3.48698395 L61.2478273,1.07932069 C61.2478273,0.714942633 61.5245701,0.47048658 61.8566623,0.47048658 L72.6357976,0.47048658 C72.9817282,0.47048658 73.258471,0.719555613 73.258471,1.07932069 L73.258471,3.14105589 C73.2538617,3.48698395 72.9632784,3.9389974 72.4466893,4.6539165 L66.8610956,12.6287269 C68.9366697,12.5779942 71.1275518,12.8870199 73.009404,13.9478686 C73.433742,14.1877118 73.5490522,14.5382527 73.5813383,14.8841844 L73.5813383,17.4532821 C73.5813383,17.803822 73.1938977,18.2143205 72.7880085,18.0021531 C69.4717044,16.2632837 65.0668789,16.0741764 61.400035,18.020604 C61.0264328,18.2235497 60.6343809,17.8176604 60.6343809,17.4671174 L60.6343809,15.0271682 C60.6343809,14.6351163 60.6389902,13.9663174 61.0310421,13.3713208 L67.5022167,4.09120668 L61.8704985,4.09120668 C61.5245701,4.09120668 61.2478273,3.84675264 61.2478273,3.48698395" id="path12" fill="#22284C"></path>
                <path d="M21.9272646,18.5095142 L18.6478612,18.5095142 C18.3342209,18.4864551 18.0851518,18.2512233 18.0620885,17.9514151 L18.0620885,1.12083539 C18.0620885,0.784131401 18.3434448,0.516611083 18.6939846,0.516611083 L21.7519936,0.516611083 C22.0702517,0.530438898 22.323929,0.774903746 22.3469934,1.07932069 L22.3469934,3.27943004 L22.4069542,3.27943004 C23.2048954,1.15311894 24.7039184,0.161456646 26.724143,0.161456646 C28.7766527,0.161456646 30.0588959,1.15311894 30.9813722,3.27943004 C31.774702,1.15311894 33.5781425,0.161456646 35.5107327,0.161456646 C36.8852228,0.161456646 38.3888593,0.728779666 39.3067242,2.0017974 C40.3445097,3.41779868 40.1323391,5.47492101 40.1323391,7.27836493 L40.1277298,17.9006824 C40.1277298,18.2373849 39.8463735,18.5095142 39.4958336,18.5095142 L36.2210395,18.5095142 C35.8935629,18.4864551 35.6306575,18.2235497 35.6306575,17.9006824 L35.6306575,8.98033314 C35.6306575,8.27002691 35.6952265,6.49887174 35.5384085,5.82546193 C35.2939528,4.69543131 34.5605849,4.37717372 33.6104307,4.37717372 C32.8171009,4.37717372 31.9868736,4.90759809 31.650169,5.75627846 C31.3134644,6.60495693 31.3457515,8.02556768 31.3457515,8.98033314 L31.3457515,17.9006824 C31.3457515,18.2373849 31.0643963,18.5095142 30.7138543,18.5095142 L27.4390654,18.5095142 C27.1069732,18.4864551 26.8486792,18.2235497 26.8486792,17.9006824 L26.8440699,8.98033314 C26.8440699,7.10309436 27.1530956,4.34027539 24.8238464,4.34027539 C22.466916,4.34027539 22.559164,7.0339057 22.559164,8.98033314 L22.559164,17.9006824 C22.559164,18.2373849 22.2778077,18.5095142 21.9272678,18.5095142" id="path14" fill="#22284C"></path>
                <path d="M82.5385854,0.161456646 C87.4046495,0.161456646 90.0383174,4.34027539 90.0383174,9.65374114 C90.0383174,14.7873219 87.1279015,18.8600551 82.5385854,18.8600551 C77.7601558,18.8600551 75.1587709,14.6812366 75.1587709,9.4738577 C75.1587709,4.23419009 77.7924419,0.161456646 82.5385854,0.161456646 M82.566258,3.59768392 C80.1493711,3.59768392 79.9971409,6.89092207 79.9971409,8.94343491 C79.9971409,11.0005574 79.9648742,15.3915444 82.5385854,15.3915444 C85.0800074,15.3915444 85.1999311,11.8492376 85.1999311,9.69063767 C85.1999311,8.27002691 85.1399693,6.57266988 84.7110156,5.22585208 C84.3420249,4.05431025 83.6086591,3.59768392 82.566258,3.59768392" id="path16" fill="#22284C"></path>
                <path d="M96.3480583,18.5095142 L93.0824922,18.5095142 C92.7550114,18.4864551 92.492106,18.2235497 92.492106,17.9006824 L92.4874967,1.06548366 C92.5151714,0.756453838 92.7873038,0.516611083 93.1193939,0.516611083 L96.1589563,0.516611083 C96.4449208,0.530438898 96.6801526,0.724168487 96.744729,0.987074342 L96.744729,3.56078209 L96.8046866,3.56078209 C97.7225536,1.25920424 99.009404,0.161456646 101.274084,0.161456646 C102.745435,0.161456646 104.179887,0.691881441 105.102363,2.14478103 C105.960265,3.49159682 105.960265,5.75627846 105.960265,7.38444662 L105.960265,17.979093 C105.923367,18.2742824 105.651235,18.5095142 105.328372,18.5095142 L102.039741,18.5095142 C101.739934,18.4864551 101.490865,18.2650607 101.458582,17.979093 L101.458582,8.83734983 C101.458582,6.99700917 101.670751,4.30337536 99.4060694,4.30337536 C98.6081293,4.30337536 97.8747592,4.83841462 97.5103809,5.65019136 C97.0491444,6.67875528 96.9891825,7.70270421 96.9891825,8.83734983 L96.9891825,17.9006824 C96.9845732,18.2373849 96.6986034,18.5095142 96.3480636,18.5095142" id="path18" fill="#22284C"></path>
                <path d="M52.6549574,10.4701326 C52.6549574,11.7477616 52.6872434,12.8132217 52.0415099,13.9478686 C51.5203115,14.8703481 50.6900832,15.4376699 49.7722204,15.4376699 C48.5130395,15.4376699 47.775058,14.4782919 47.775058,13.0622909 C47.775058,10.267188 50.2795804,9.75982654 52.6549574,9.75982654 L52.6549574,10.4701326 M55.9620366,18.4633907 C55.7452567,18.6571105 55.4316111,18.6709468 55.1871566,18.5418024 C54.0986321,17.6377759 53.9003009,17.2180503 53.3053044,16.3555348 C51.5064742,18.1912615 50.2288424,18.7401335 47.8995899,18.7401335 C45.1367725,18.7401335 42.992017,17.0381637 42.992017,13.629617 C42.992017,10.9682702 44.4310824,9.15560381 46.4882045,8.27002691 C48.2685828,7.48591915 50.7546532,7.3475502 52.6549574,7.13076853 L52.6549574,6.70642935 C52.6549574,5.92693425 52.7149192,5.00445754 52.2536805,4.33105314 C51.8570162,3.72682861 51.0913579,3.47775989 50.4133393,3.47775989 C49.1633823,3.47775989 48.0518008,4.11888085 47.7796683,5.44724683 C47.72432,5.74244132 47.5075401,6.03302135 47.2077319,6.04685838 L44.0298024,5.70553971 C43.7622824,5.64558199 43.4624795,5.42879682 43.5408901,5.01829807 C44.2696466,1.1623466 47.7566093,2.30018628e-05 50.874577,2.30018628e-05 C52.4704625,2.30018628e-05 54.5552583,0.424363136 55.8144392,1.63280646 C57.4103216,3.12260588 57.258115,5.11054283 57.258115,7.27375205 L57.258115,12.3842713 C57.258115,13.9201971 57.8946236,14.5936011 58.4942326,15.4238336 C58.7017928,15.719023 58.7479163,16.0741764 58.4803825,16.2955709 C57.8115878,16.8536721 56.6215915,17.8914575 55.9666342,18.4726167 L55.9620249,18.463377" id="path28" fill="#22284C"></path>
                <path d="M9.66294177,10.4701326 C9.66294177,11.7477616 9.69522522,12.8132217 9.04949478,13.9478686 C8.52829266,14.8703481 7.70267698,15.4376699 6.78020026,15.4376699 C5.52101955,15.4376699 4.78765213,14.4782919 4.78765213,13.0622909 C4.78765213,10.267188 7.29217483,9.75982654 9.66294177,9.75982654 L9.66294177,10.4701326 M12.9700185,18.4633907 C12.7532376,18.6571105 12.4395921,18.6709468 12.1951364,18.5418024 C11.1066172,17.6377759 10.9128943,17.2180503 10.3132851,16.3555348 C8.51445552,18.1912615 7.24144127,18.7401335 4.90757266,18.7401335 C2.14936668,18.7401335 -2.26876927e-07,17.0381637 -2.26876927e-07,13.629617 C-2.26876927e-07,10.9682702 1.44367513,9.15560381 3.49618448,8.27002691 C5.27656371,7.48591915 7.76263809,7.3475502 9.66294177,7.13076853 L9.66294177,6.70642935 C9.66294177,5.92693425 9.72290299,5.00445754 9.26627666,4.33105314 C8.86499666,3.72682861 8.09934389,3.47775989 7.42593409,3.47775989 C6.17598114,3.47775989 5.05978215,4.11888085 4.78765213,5.44724683 C4.7323023,5.74244132 4.51552053,6.03302135 4.22032954,6.04685838 L1.03778588,5.70553971 C0.770267136,5.64558199 0.47507431,5.42879682 0.548872519,5.01829807 C1.2822417,1.1623466 4.76458925,2.30018628e-05 7.88256223,2.30018628e-05 C9.47844366,2.30018628e-05 11.5632403,0.424363136 12.8224212,1.63280646 C14.4183068,3.12260588 14.2660959,5.11054283 14.2660959,7.27375205 L14.2660959,12.3842713 C14.2660959,13.9201971 14.9026077,14.5936011 15.5022177,15.4238336 C15.7143862,15.719023 15.7605097,16.0741764 15.4929886,16.2955709 C14.8241939,16.8536721 13.6342008,17.8914575 12.9792392,18.4726167 L12.9700207,18.463377" id="path30" fill="#22284C"></path>
            </g>
        </g>
    </g>
</svg>