<?xml version="1.0" encoding="UTF-8"?>
<svg width="727px" height="702px" viewBox="0 0 727 702" version="1.1" xmlns="http://www.w3.org/2000/svg" xmlns:xlink="http://www.w3.org/1999/xlink">
    <title>1EB70386-985A-4117-B240-FC0C5E77F14F</title>
    <g id="Moodboard" stroke="none" stroke-width="1" fill="none" fill-rule="evenodd" opacity="0.100000001">
        <g id="Mobile_ClientTestimonials_Detail" transform="translate(161.000000, -4549.000000)" stroke="#FF5A5F">
            <g id="Body" transform="translate(-84.000000, 1081.000000)">
                <g id="Banner" transform="translate(84.000000, 3500.000000)">
                    <g id="Line" transform="translate(-160.000000, -31.000000)">
                        <path d="M347.417925,423.064815 C332.84826,418.34343 314.541375,415.65651 305.547435,403.270665 C296.553495,390.88482 285.256755,362.408805 285.256755,347.102565 C285.256755,331.796325 287.57925,321.174345 296.576655,308.790675 C305.574045,296.407005 330.030825,281.457405 344.588385,276.72738 C359.14593,271.99734 367.991295,284.2779 382.54929,289.007955 C397.107285,293.738025 420.17091,304.04463 429.166995,316.428135 C438.16308,328.81164 439.59852,342.101265 439.602481,357.40812 C439.60644,372.714975 423.592845,378.069585 414.580905,390.45309 C405.568965,402.836595 403.20618,411.44985 388.703745,416.179935 C374.201295,420.91002 361.987605,427.7862 347.41794,423.064815 L347.417925,423.064815 Z" id="Path"></path>
                        <path d="M345.521715,432.27429 C329.11167,426.95652 308.49234,423.930195 298.36233,409.97982 C288.23232,396.02946 275.508615,363.95646 275.508615,346.71681 C275.508615,329.47716 278.12448,317.513445 288.25839,303.56553 C298.3923,289.6176 325.93836,272.779635 342.334755,267.45213 C358.73115,262.124625 368.693835,275.956395 385.090725,281.283945 C401.487615,286.611495 427.464555,298.21998 437.59698,312.16773 C447.729405,326.11548 449.346165,341.083785 449.350636,358.32414 C449.355105,375.564495 431.31873,381.59547 421.16844,395.543205 C411.018135,409.49094 408.35691,419.19219 392.022585,424.519755 C375.688245,429.84732 361.931775,437.592075 345.52173,432.274305 L345.521715,432.27429 Z" id="Path"></path>
                        <path d="M343.38597,442.64709 C324.903075,436.657605 301.67919,433.249005 290.269605,417.53649 C278.86002,401.823975 264.52911,365.699655 264.52911,346.28235 C264.52911,326.86506 267.47541,313.39014 278.88939,297.68037 C290.30337,281.9706 321.328935,263.00574 339.796455,257.005275 C358.263975,251.00481 369.4851,266.583765 387.953175,272.58426 C406.42125,278.58477 435.679485,291.65958 447.0918,307.369155 C458.504115,323.078715 460.3251,339.93777 460.330126,359.355855 C460.335165,378.77394 440.020515,385.56672 428.58807,401.27628 C417.155625,416.98584 414.15825,427.9125 395.76063,433.913025 C377.36301,439.91355 361.86888,448.636575 343.385985,442.647105 L343.38597,442.64709 Z" id="Path"></path>
                        <path d="M340.980465,454.330125 C320.162895,447.584085 294.005475,443.74491 281.15466,426.047655 C268.30386,408.3504 252.162735,367.663005 252.162735,345.793005 C252.162735,323.923005 255.4812,308.74599 268.336935,291.051825 C281.192685,273.35766 316.137255,251.99724 336.93753,245.238825 C357.73779,238.48041 370.37631,256.02723 391.1772,262.78569 C411.97809,269.54415 444.9321,284.270535 457.78596,301.96446 C470.63982,319.658385 472.69083,338.647005 472.696501,360.51789 C472.70217,382.38879 449.821455,390.0396 436.944915,407.733525 C424.068375,425.42745 420.69237,437.73432 399.970845,444.492795 C379.24932,451.25127 361.79802,461.076165 340.980465,454.330125 L340.980465,454.330125 Z" id="Path"></path>
                        <path d="M338.27109,467.48892 C314.82393,459.890745 285.362415,455.56662 270.888345,435.63393 C256.414275,415.701225 238.234275,369.87438 238.234275,345.241845 C238.234275,320.60931 241.9719,303.51522 256.451535,283.585995 C270.93117,263.65677 310.289805,239.598195 333.717465,231.986085 C357.145125,224.373975 371.380095,244.137225 394.80846,251.749395 C418.236825,259.36155 455.353455,275.948115 469.83096,295.87707 C484.308465,315.806025 486.61854,337.19319 486.624931,361.82673 C486.63132,386.46027 460.860405,395.0775 446.357355,415.00644 C431.854305,434.935395 428.051865,448.796805 404.71287,456.40899 C381.37389,464.021175 361.71822,475.08711 338.27106,467.48892 L338.27109,467.48892 Z" id="Path"></path>
                        <path d="M335.21949,482.309865 C308.810595,473.751915 275.62761,468.881595 259.325235,446.43108 C243.022875,423.980565 222.54645,372.365055 222.54645,344.62104 C222.54645,316.87704 226.7562,297.623685 243.064845,275.177085 C259.37349,252.730485 303.703725,225.63294 330.090675,217.0593 C356.477625,208.48566 372.51069,230.74533 398.898435,239.31903 C425.28618,247.89273 467.09121,266.57442 483.397455,289.02072 C499.7037,311.46702 502.305585,335.55573 502.312771,363.30087 C502.319955,391.04601 473.293785,400.75173 456.95877,423.198015 C440.623755,445.6443 436.341,461.256645 410.053935,469.83036 C383.76687,478.404075 361.628385,490.867815 335.219475,482.309865 L335.21949,482.309865 Z" id="Path"></path>
                        <path d="M331.78242,499.00293 C302.03766,489.363975 264.663135,483.87846 246.30153,458.59209 C227.939925,433.30572 204.877005,375.170355 204.877005,343.921845 C204.877005,312.673335 209.61852,290.98797 227.98719,265.706025 C246.35586,240.42408 296.28573,209.90367 326.005755,200.247045 C355.725795,190.59042 373.784085,215.66184 403.505025,225.318525 C433.22595,234.97521 480.311625,256.0167 498.67761,281.298315 C517.043595,306.57993 519.97413,333.71142 519.982232,364.96122 C519.99033,396.211005 487.297695,407.14272 468.89931,432.424335 C450.500925,457.70595 445.677195,475.290375 416.069655,484.94709 C386.462115,494.603805 361.527195,508.6419 331.782435,499.002945 L331.78242,499.00293 Z" id="Path"></path>
                        <path d="M327.911205,517.804605 C294.409215,506.9481 252.313695,500.769675 231.63273,472.289235 C210.95175,443.808795 184.975634,378.330015 184.975634,343.134315 C184.975634,307.938615 190.31607,283.514055 211.005,255.038595 C231.69393,226.563135 287.930715,192.187515 321.404865,181.311105 C354.879015,170.434695 375.218355,198.67302 408.69351,209.549505 C442.168665,220.42599 495.202005,244.125345 515.887905,272.60043 C536.573805,301.075515 539.87451,331.634145 539.883632,366.83127 C539.89275,402.028395 503.07051,414.34095 482.34813,442.816035 C461.625735,471.291105 456.19269,491.09673 422.84526,501.973245 C389.497815,512.84976 361.413225,528.661095 327.91122,517.80459 L327.911205,517.804605 Z" id="Path"></path>
                        <path d="M323.550975,538.98123 C285.81714,526.75338 238.404315,519.79452 215.11101,487.716555 C191.817705,455.63859 162.560384,381.88881 162.560384,342.247335 C162.560384,302.605875 168.5754,275.0961 191.877675,243.023745 C215.17995,210.95139 278.52033,172.233585 316.222785,159.98331 C353.92524,147.733035 376.833765,179.538315 414.53736,191.788665 C452.240955,204.039015 511.973235,230.73198 535.27209,262.803915 C558.570945,294.87585 562.288575,329.29452 562.298852,368.9376 C562.309125,408.58068 520.835655,422.44851 497.4957,454.520445 C474.155745,486.59238 468.03642,508.89975 430.476675,521.150145 C392.91693,533.400525 361.284795,551.20908 323.550975,538.98123 L323.550975,538.98123 Z" id="Path"></path>
                        <path d="M318.63999,562.83279 C276.139785,549.06036 222.737955,541.2225 196.50234,505.09257 C170.266725,468.962655 137.313734,385.897095 137.313734,341.24829 C137.313734,296.599485 144.088545,265.614795 170.334255,229.49118 C196.579965,193.367565 267.92124,149.7591 310.386105,135.961425 C352.85097,122.16375 378.65322,157.98654 421.11936,171.784305 C463.585515,185.58207 530.86293,215.64678 557.1048,251.769915 C583.34667,287.89305 587.533905,326.659335 587.545472,371.309955 C587.55705,415.96059 540.844815,431.580135 514.556655,467.703255 C488.268495,503.826375 481.376205,528.951525 439.072065,542.749335 C396.767925,556.547145 361.140165,576.60519 318.63996,562.832775 L318.63999,562.83279 Z" id="Path"></path>
                        <path d="M313.108665,589.697175 C265.240005,574.185075 205.09269,565.357155 175.54311,524.66346 C145.993515,483.969765 108.878054,390.41172 108.878054,340.123065 C108.878054,289.83441 116.50863,254.93586 146.069595,214.249275 C175.63056,173.56269 255.983355,124.445775 303.81222,108.905235 C351.64107,93.364695 380.70255,133.71246 428.53284,149.253105 C476.363145,164.79375 552.13875,198.6561 581.69538,239.34216 C611.25201,280.028205 615.96816,323.6913 615.981197,373.98201 C615.99423,424.27272 563.38152,441.865275 533.77275,482.551305 C504.16398,523.23735 496.40109,551.5362 448.753275,567.07689 C401.10546,582.61758 360.97734,605.209275 313.108695,589.697175 L313.108665,589.697175 Z" id="Path"></path>
                        <path d="M306.878655,619.954965 C252.963435,602.483445 185.21856,592.54041 151.936395,546.706455 C118.65423,500.8725 76.8504891,395.4966 76.8504891,338.8557 C76.8504891,282.214785 85.444935,242.908005 118.73991,197.08206 C152.034885,151.256115 242.53752,95.93496 296.407905,78.431415 C350.278305,60.92787 383.01069,106.372185 436.88271,123.875865 C490.75473,141.379545 576.102,179.51925 609.3921,225.34458 C642.6822,271.169925 647.994075,320.34834 648.008748,376.991565 C648.02343,433.63479 588.764895,453.44955 555.41607,499.27488 C522.067245,545.10021 513.323775,576.97365 459.657285,594.477375 C405.990795,611.9811 360.793875,637.426485 306.878655,619.954965 Z" id="Path"></path>
                        <path d="M299.8617,654.034785 C239.136135,634.35633 162.834015,623.157345 125.347785,571.53384 C87.861555,519.910335 40.777334,401.223795 40.777334,337.42824 C40.777334,273.632685 50.45739,229.360845 87.95805,177.746355 C125.45871,126.131865 227.39325,63.82278 288.068325,44.10825 C348.7434,24.39372 385.610415,75.578385 446.28732,95.29305 C506.964225,115.007715 603.092205,157.96506 640.587375,209.578875 C678.082545,261.192675 684.065385,316.583115 684.081918,380.381265 C684.098445,444.179415 617.354625,466.497105 579.79332,518.11089 C542.232015,569.72469 532.384095,605.62425 471.938685,625.33896 C411.493275,645.05367 360.587265,673.713225 299.8617,654.03477 L299.8617,654.034785 Z" id="Path"></path>
                        <path d="M291.95838,692.419425 C223.56222,670.255275 137.62194,657.641685 95.4006,599.497305 C53.17926,541.35294 0.147568864,407.67441 0.147568864,335.82048 C0.147568864,263.96655 11.050365,214.10247 53.28795,155.968245 C95.525535,97.834035 210.336015,27.65433 278.67531,5.449545 C347.014605,-16.75524 388.538505,40.89486 456.879855,63.099795 C525.22122,85.30473 633.49167,133.68828 675.723075,191.821725 C717.95448,249.95517 724.693035,312.342285 724.711668,384.199155 C724.730295,456.056025 649.55568,481.192785 607.249785,539.326215 C564.94389,597.459645 553.852035,637.8939 485.771415,660.09888 C417.690795,682.303875 360.35454,714.583575 291.95838,692.419425 Z" id="Path"></path>
                    </g>
                </g>
            </g>
        </g>
    </g>
</svg>