<?xml version="1.0" encoding="UTF-8"?>
<svg width="87px" height="12px" viewBox="0 0 87 12" version="1.1" xmlns="http://www.w3.org/2000/svg" xmlns:xlink="http://www.w3.org/1999/xlink">
    <title>A721FAF1-D0A7-447D-8D8A-B7EB40079F25</title>
    <g id="Moodboard" stroke="none" stroke-width="1" fill="none" fill-rule="evenodd" opacity="0.5">
        <g id="Mobile_ClientTestimonials_Detail" transform="translate(-87.000000, -7637.000000)" fill="#22284C" fill-rule="nonzero">
            <g id="Body" transform="translate(-84.000000, 1081.000000)">
                <g id="Lire-d'autres-témoignages-de-nos-clients" transform="translate(114.000000, 6348.000000)">
                    <g id="Item" transform="translate(0.000000, 128.000000)">
                        <g id="Client-Logo" transform="translate(57.000000, 80.000000)">
                            <path d="M85.7538462,4.73846154 L85.7538462,11.4769231 L83.6,11.4769231 L83.6,6.98461538 L75.7230769,6.98461538 L75.7230769,11.4769231 L73.5692308,11.4769231 L73.5692308,4.73846154 L85.7538462,4.73846154 Z M59.2307692,0.338461538 L59.2307692,9.29230769 L68.9230769,9.29230769 C68.6769231,10.2153846 68.0923077,11.0153846 67.0153846,11.4769231 L67.0153846,11.4769231 L57.0461538,11.4769231 L57.0461538,0.338461538 L59.2307692,0.338461538 Z M50.9538462,0.338461538 C50.7076923,1.29230769 49.7538462,2.18461538 48.5846154,2.52307692 L48.5846154,2.52307692 L40.8923077,2.52307692 L40.9230769,4.73846154 L50.8923077,4.73846154 L50.8923077,11.4769231 L38.1230769,11.4769231 C38.6461538,10.4 39.6923077,9.56923077 40.9230769,9.23076923 L40.9230769,9.23076923 L48.7384615,9.23076923 L48.7384615,6.92307692 L38.7692308,6.92307692 L38.7692308,0.338461538 Z M32.4923077,9.23076923 C32.2372848,10.3488305 31.3642151,11.2219002 30.2461538,11.4769231 L30.2461538,11.4769231 L21.9384615,11.4769231 C20.8277226,11.2087475 19.9604833,10.3415081 19.6923077,9.23076923 L19.6923077,9.23076923 Z M14.3692308,0.307692308 L14.3692308,0.338461538 C14.1230769,1.32307692 13.2923077,2.24615385 12.1230769,2.55384615 L12.1230769,2.55384615 L8.61538462,2.55384615 L8.43076923,2.61538462 L8.43076923,11.4461538 L6.24615385,11.4461538 L6.24615385,2.61538462 L6.06153846,2.55384615 L2.55384615,2.55384615 C1.45470688,2.28461639 0.592056279,1.43378292 0.307692308,0.338461538 L0.307692308,0.338461538 L14.3692308,0.307692308 Z M32.4923077,4.70769231 C32.2372848,5.82575357 31.3642151,6.6988233 30.2461538,6.95384615 L30.2461538,6.95384615 L21.9384615,6.95384615 C20.8312692,6.67936982 19.966784,5.81488465 19.6923077,4.70769231 L19.6923077,4.70769231 Z M86.0307692,0.307692308 C85.7846154,1.29230769 84.9538462,2.33846154 83.7846154,2.55384615 L83.7846154,2.55384615 L75.4769231,2.55384615 C74.3384615,2.30769231 73.4769231,1.29230769 73.2,0.307692308 L73.2,0.307692308 Z M32.4923077,0.307692308 C32.2372848,1.42575357 31.3642151,2.2988233 30.2461538,2.55384615 L30.2461538,2.55384615 L21.9384615,2.55384615 C20.8312692,2.27936982 19.966784,1.41488465 19.6923077,0.307692308 L19.6923077,0.307692308 Z" id="Combined-Shape"></path>
                        </g>
                    </g>
                </g>
            </g>
        </g>
    </g>
</svg>