<?xml version="1.0" encoding="UTF-8"?>
<svg width="92px" height="64px" viewBox="0 0 92 64" version="1.1" xmlns="http://www.w3.org/2000/svg" xmlns:xlink="http://www.w3.org/1999/xlink">
    <title>1F86EBB6-08DA-4016-A590-30B9FB980A13</title>
    <defs>
        <linearGradient x1="0.975196678%" y1="50%" x2="100%" y2="50%" id="linearGradient-1">
            <stop stop-color="#FFAA00" stop-opacity="0" offset="0%"></stop>
            <stop stop-color="#FFAA00" offset="100%"></stop>
        </linearGradient>
    </defs>
    <g id="Moodboard" stroke="none" stroke-width="1" fill="none" fill-rule="evenodd">
        <g id="Mobile_ClientTestimonials_Detail" transform="translate(-159.000000, -1497.000000)">
            <g id="Body" transform="translate(-84.000000, 1081.000000)">
                <g id="Info" transform="translate(84.000000, 0.000000)">
                    <g id="Item" transform="translate(30.000000, 416.000000)">
                        <g id="Icon" transform="translate(129.000000, 0.000000)">
                            <circle id="Oval" fill="url(#linearGradient-1)" opacity="0.200000003" cx="60" cy="32" r="32"></circle>
                            <g id="line-chart" transform="translate(0.000000, 4.000000)" fill-rule="nonzero">
                                <path d="M8.09375,56 C3.6308125,56 0,52.3691875 0,47.90625 L0,27.125 C0,22.6620625 3.6308125,19.03125 8.09375,19.03125 C12.5566875,19.03125 16.1875,22.6620625 16.1875,27.125 L16.1875,47.90625 C16.1875,52.3691875 12.5566875,56 8.09375,56 Z M8.09375,23.40625 C6.0431875,23.40625 4.375,25.0744375 4.375,27.125 L4.375,47.90625 C4.375,49.9568125 6.0431875,51.625 8.09375,51.625 C10.1443125,51.625 11.8125,49.9568125 11.8125,47.90625 L11.8125,27.125 C11.8125,25.0745469 10.1443125,23.40625 8.09375,23.40625 Z M28,56 C23.5370625,56 19.90625,52.3691875 19.90625,47.90625 L19.90625,38.9375 C19.90625,34.4745625 23.5370625,30.84375 28,30.84375 C32.4629375,30.84375 36.09375,34.4745625 36.09375,38.9375 L36.09375,47.90625 C36.09375,52.3691875 32.4629375,56 28,56 Z M28,35.21875 C25.9494375,35.21875 24.28125,36.8869375 24.28125,38.9375 L24.28125,47.90625 C24.28125,49.9568125 25.9494375,51.625 28,51.625 C30.0505625,51.625 31.71875,49.9568125 31.71875,47.90625 L31.71875,38.9375 C31.71875,36.8870469 30.0505625,35.21875 28,35.21875 Z M47.90625,56 C43.4433125,56 39.8125,52.3691875 39.8125,47.90625 L39.8125,28.765625 C39.8125,24.3026875 43.4433125,20.671875 47.90625,20.671875 C52.3691875,20.671875 56,24.3026875 56,28.765625 L56,47.90625 C56,52.3691875 52.3691875,56 47.90625,56 Z M47.90625,25.046875 C45.8556875,25.046875 44.1875,26.7150625 44.1875,28.765625 L44.1875,47.90625 C44.1875,49.9568125 45.8556875,51.625 47.90625,51.625 C49.9568125,51.625 51.625,49.9568125 51.625,47.90625 L51.625,28.765625 C51.625,26.7151719 49.9568125,25.046875 47.90625,25.046875 Z" id="Shape" fill="#22284C"></path>
                                <path d="M30.0686094,26.6820313 C28.4000938,26.6820313 26.7237031,26.1416094 25.3262188,25.036375 C25.2871719,25.0054219 11.3237031,12.3231719 11.3237031,12.3231719 C10.0809844,11.3791563 8.35570312,11.4378906 7.17970312,12.467 L3.72585937,15.8833281 C2.86682812,16.7329531 1.48170312,16.7252969 0.63240625,15.8664844 C-0.217328125,15.0074531 -0.209671875,13.6224375 0.64925,12.7729219 C0.64925,12.7729219 4.19442187,9.26745313 4.220125,9.24426563 C7.00295312,6.7414375 11.1535156,6.61007813 14.0891406,8.93167188 C14.1281875,8.962625 28.0915469,21.644875 28.0915469,21.644875 C29.4436406,22.6714688 31.3741094,22.4934063 32.5143438,21.2262969 C32.5280156,21.2110938 32.5419063,21.1961094 32.5560156,21.1813438 L44.6813281,8.44484375 C45.5143281,7.56984375 46.8989062,7.53571875 47.7739062,8.36882813 C48.6489062,9.20182813 48.6830312,10.5864063 47.8499219,11.4615156 L35.7442969,24.1773438 C34.2430156,25.8309844 32.1620469,26.6820313 30.0686094,26.6820313 Z M56,12.46875 L56,6.5625 C56,2.9439375 53.0560625,0 49.4375,0 L43.53125,0 C42.3230937,0 41.34375,0.97934375 41.34375,2.1875 C41.34375,3.39565625 42.3230937,4.375 43.53125,4.375 L49.4375,4.375 C50.6436875,4.375 51.625,5.3563125 51.625,6.5625 L51.625,12.46875 C51.625,13.6769062 52.6043438,14.65625 53.8125,14.65625 C55.0206562,14.65625 56,13.6769062 56,12.46875 Z" id="Shape" fill="#FFAA00"></path>
                            </g>
                        </g>
                    </g>
                </g>
            </g>
        </g>
    </g>
</svg>