<?xml version="1.0" encoding="UTF-8"?>
<svg width="962px" height="94px" viewBox="0 0 962 94" version="1.1" xmlns="http://www.w3.org/2000/svg" xmlns:xlink="http://www.w3.org/1999/xlink">
    <title>1CE5DF60-668A-4094-8C39-BD037EA2E1C4</title>
    <g id="Moodboard" stroke="none" stroke-width="0.8" fill="none" fill-rule="evenodd" opacity="0.100000001">
        <g id="Mobile_Lehibou-LP-Domaine" transform="translate(293.000000, -2597.000000)" stroke="#22284C">
            <g id="Line" transform="translate(-292.000000, 2598.000000)">
                <polyline id="Path" points="0 0 15.7377049 1.2970163 31.4754098 2.82837366 47.2131148 4.5751021 62.9508197 6.51535362 78.6885246 8.62496932 94.4262295 10.8781097 110.163934 13.2477589 125.901639 15.7062288 141.639344 18.2255579 157.377049 20.7776381 173.114754 23.3340669 188.852459 25.8657486 204.590164 28.3506041 220.327869 30.7763859 236.065574 33.1421697 251.803279 35.4496571 267.540984 37.7048563 283.278689 39.9151409 299.016393 42.0871495 314.754098 44.2252307 330.491803 46.3306449 346.229508 48.4009972 361.967213 50.4301743 377.704918 52.4085338 393.442623 54.32324 409.180328 56.158768 424.918033 57.8975346 440.655738 59.5205066 456.393443 61.0078527 472.131148 62.3394477 487.868852 63.4953972 503.606557 64.4563951 519.344262 65.2040177 535.081967 65.7209545 550.819672 65.9911768 566.557377 66 582.295082 65.7341054 598.032787 65.1816655 613.770492 64.3324706 629.508197 63.1781387 645.245902 61.7125565 660.983607 59.9326359 676.721311 57.8399524 692.459016 55.4430562 708.196721 52.760224 723.934426 49.8229043 739.672131 46.6746252 755.409836 43.3643136 771.147541 39.9441526 786.885246 36.4685102 802.622951 32.9928679 818.360656 29.5727069 834.098361 26.2623953 849.836066 23.1141161 865.57377 20.1767965 881.311475 17.4951407 897.04918 15.1087483 912.786885 13.0512318 928.52459 11.3496069 944.262295 10.023684 960 9.08568951"></polyline>
                <polyline id="Path" points="0 19.895772 15.7377049 21.2941078 31.4754098 22.94631 47.2131148 24.8321005 62.9508197 26.927923 78.6885246 29.2075523 94.4262295 31.642578 110.163934 34.2028873 125.901639 36.8569387 141.639344 39.572035 157.377049 42.3142389 173.114754 45.0482475 188.852459 47.7369505 204.590164 50.3454232 220.327869 52.8503404 236.065574 55.2406699 251.803279 57.5135749 267.540984 59.6707783 283.278689 61.7159368 299.016393 63.6527066 314.754098 65.4836093 330.491803 67.2091914 346.229508 68.8277507 361.967213 70.3352946 377.704918 71.7256871 393.442623 72.9909851 409.180328 74.1218795 424.918033 75.1081155 440.655738 75.9389762 456.393443 76.6036816 472.131148 77.0917878 487.868852 77.3935026 503.606557 77.5 519.344262 77.403379 535.081967 77.096558 550.819672 76.5730646 566.557377 75.8268681 582.295082 74.8522527 598.032787 73.6436707 613.770492 72.1958897 629.508197 70.5041607 645.245902 68.5647852 660.983607 66.3759982 676.721311 63.9394385 692.459016 61.2621039 708.196721 58.3590821 723.934426 55.2572287 739.672131 51.9979617 755.409836 48.6313146 771.147541 45.210179 786.885246 41.7889384 802.622951 38.4224174 818.360656 35.1647894 834.098361 32.0684626 849.836066 29.1830714 865.57377 26.5543835 881.311475 24.2234177 897.04918 22.2253299 912.786885 20.5880054 928.52459 19.3314281 944.262295 18.4674918 960 18"></polyline>
                <polyline id="Path" points="0 42.3856833 15.7377049 43.911414 31.4754098 45.6988427 47.2131148 47.7265153 62.9508197 49.9693148 78.6885246 52.398838 94.4262295 54.9838144 110.163934 57.6902942 125.901639 60.481774 141.639344 63.3191341 157.377049 66.1603246 173.114754 68.9601558 188.852459 71.6724753 204.590164 74.2547516 220.327869 76.6769072 236.065574 78.9224696 251.803279 80.9843012 267.540984 82.8611463 283.278689 84.5550352 299.016393 86.0694424 314.754098 87.4080516 330.491803 88.5739816 346.229508 89.5693883 361.967213 90.395402 377.704918 91.0522109 393.442623 91.5392709 409.180328 91.8555983 424.918033 92 440.655738 91.9713666 456.393443 91.768882 472.131148 91.3921064 487.868852 90.8410609 503.606557 90.1162686 519.344262 89.2186298 535.081967 88.1493373 550.819672 86.9097099 566.557377 85.5007103 582.295082 83.9226316 598.032787 82.1749296 613.770492 80.256181 629.508197 78.1642718 645.245902 75.8968995 660.983607 73.4524735 676.721311 70.8315171 692.459016 68.0386768 708.196721 65.0856111 723.934426 61.9946113 739.672131 58.8028088 755.409836 55.5587211 771.147541 52.3137124 786.885246 49.1199842 802.622951 46.0295077 818.360656 43.0929983 834.098361 40.3588899 849.836066 37.8721836 865.57377 35.6733807 881.311475 33.7976868 897.04918 32.2743631 912.786885 31.1258057 928.52459 30.3659962 944.262295 30 960 30.0242379"></polyline>
            </g>
        </g>
    </g>
</svg>