<?xml version="1.0" encoding="UTF-8"?>
<svg width="315px" height="315px" viewBox="0 0 315 315" version="1.1" xmlns="http://www.w3.org/2000/svg" xmlns:xlink="http://www.w3.org/1999/xlink">
    <title>889BB8AC-CE90-497F-83C8-73473816A8A7</title>
    <defs>
        <circle id="path-1" cx="157.5" cy="157.5" r="157.5"></circle>
    </defs>
    <g id="Moodboard" stroke="none" stroke-width="1" fill="none" fill-rule="evenodd">
        <g id="Mobile_ClientTestimonials_Detail" transform="translate(-30.000000, -634.000000)">
            <g id="Image" transform="translate(0.000000, 634.000000)">
                <g id="Line" transform="translate(30.000000, 0.000000)">
                    <mask id="mask-2" fill="white">
                        <use xlink:href="#path-1"></use>
                    </mask>
                    <g id="Oval"></g>
                    <g id="quickly-shape" opacity="0.200000003" mask="url(#mask-2)" stroke="#FF5A5F" stroke-linecap="round" stroke-width="2.33333333">
                        <g transform="translate(0.000000, 1.166667)" id="Path">
                            <line x1="7" y1="7" x2="0" y2="0"></line>
                            <line x1="8.16666667" y1="40.8333333" x2="0" y2="35.5833333"></line>
                            <line x1="7" y1="73.5" x2="0" y2="68.8333333"></line>
                            <line x1="7" y1="107.916667" x2="0" y2="105"></line>
                            <line x1="7" y1="141.289111" x2="0" y2="140.460889"></line>
                            <line x1="7" y1="173.642184" x2="0" y2="174.607816"></line>
                            <line x1="7" y1="207.083333" x2="0" y2="210"></line>
                            <line x1="7" y1="241.5" x2="0" y2="246.166667"></line>
                            <line x1="7" y1="274.166667" x2="0" y2="280.583333"></line>
                            <line x1="7" y1="308" x2="0" y2="315"></line>
                            <line x1="40.8333333" y1="7" x2="34.4166667" y2="0"></line>
                            <line x1="40.8333333" y1="40.8333333" x2="34.4166667" y2="34.4166667"></line>
                            <line x1="40.8333333" y1="73.5" x2="34.4166667" y2="68.8333333"></line>
                            <line x1="40.8333333" y1="107.916667" x2="34.4166667" y2="105"></line>
                            <line x1="40.8333333" y1="141.305544" x2="34.4166667" y2="140.444456"></line>
                            <line x1="40.8333333" y1="173.641055" x2="34.4166667" y2="174.608945"></line>
                            <line x1="40.8333333" y1="207.083333" x2="34.4166667" y2="210"></line>
                            <line x1="40.8333333" y1="241.5" x2="34.4166667" y2="246.166667"></line>
                            <line x1="40.8333333" y1="274.166667" x2="34.4166667" y2="280.583333"></line>
                            <line x1="40.8333333" y1="306.833333" x2="35.5833333" y2="315"></line>
                            <line x1="73.5" y1="7" x2="68.8333333" y2="0"></line>
                            <line x1="73.5" y1="40.8333333" x2="68.8333333" y2="34.4166667"></line>
                            <line x1="73.5" y1="73.5" x2="68.8333333" y2="68.8333333"></line>
                            <line x1="73.5" y1="107.916667" x2="68.8333333" y2="105"></line>
                            <line x1="73.5" y1="141.300661" x2="68.8333333" y2="140.449339"></line>
                            <line x1="73.5" y1="173.661189" x2="68.8333333" y2="174.588811"></line>
                            <line x1="73.5" y1="207.083333" x2="68.8333333" y2="210"></line>
                            <line x1="73.5" y1="241.5" x2="68.8333333" y2="246.166667"></line>
                            <line x1="74.0833333" y1="274.166667" x2="69.4166667" y2="280.583333"></line>
                            <line x1="73.5" y1="308" x2="68.8333333" y2="315"></line>
                            <line x1="107.916667" y1="7" x2="105" y2="0"></line>
                            <line x1="107.916667" y1="40.8333333" x2="105" y2="34.4166667"></line>
                            <line x1="107.916667" y1="73.5" x2="105" y2="68.8333333"></line>
                            <line x1="107.916667" y1="107.916667" x2="105" y2="105"></line>
                            <line x1="107.916667" y1="141.302525" x2="105" y2="140.447475"></line>
                            <line x1="107.916667" y1="173.674576" x2="105" y2="174.575424"></line>
                            <line x1="107.916667" y1="207.083333" x2="105" y2="210"></line>
                            <line x1="107.916667" y1="241.5" x2="105" y2="246.166667"></line>
                            <line x1="107.916667" y1="274.166667" x2="105" y2="280.583333"></line>
                            <line x1="107.916667" y1="308" x2="105" y2="315"></line>
                            <line x1="141.357816" y1="7" x2="140.392184" y2="0"></line>
                            <line x1="141.358945" y1="40.8333333" x2="140.391055" y2="34.4166667"></line>
                            <line x1="141.338811" y1="73.5" x2="140.411189" y2="68.8333333"></line>
                            <line x1="141.325424" y1="107.916667" x2="140.424576" y2="105"></line>
                            <line x1="141.3125" y1="141.3125" x2="140.4375" y2="140.4375"></line>
                            <line x1="141.3125" y1="173.6875" x2="140.4375" y2="174.5625"></line>
                            <line x1="141.302525" y1="207.083333" x2="140.447475" y2="210"></line>
                            <line x1="141.300661" y1="241.5" x2="140.449339" y2="246.166667"></line>
                            <line x1="141.305544" y1="274.166667" x2="140.444456" y2="280.583333"></line>
                            <line x1="141.289111" y1="308" x2="140.460889" y2="315"></line>
                            <line x1="173.710889" y1="7" x2="174.539111" y2="0"></line>
                            <line x1="173.694456" y1="40.8333333" x2="174.555544" y2="34.4166667"></line>
                            <line x1="173.699339" y1="73.5" x2="174.550661" y2="68.8333333"></line>
                            <line x1="173.697475" y1="107.916667" x2="174.552525" y2="105"></line>
                            <line x1="173.6875" y1="141.3125" x2="174.5625" y2="140.4375"></line>
                            <line x1="173.6875" y1="173.6875" x2="174.5625" y2="174.5625"></line>
                            <line x1="173.674576" y1="207.083333" x2="174.575424" y2="210"></line>
                            <line x1="173.661189" y1="241.5" x2="174.588811" y2="246.166667"></line>
                            <line x1="173.641055" y1="274.166667" x2="174.608945" y2="280.583333"></line>
                            <line x1="173.642184" y1="308" x2="174.607816" y2="315"></line>
                            <line x1="207.083333" y1="7" x2="210" y2="0"></line>
                            <line x1="207.083333" y1="40.8333333" x2="210" y2="34.4166667"></line>
                            <line x1="207.083333" y1="73.5" x2="210" y2="68.8333333"></line>
                            <line x1="207.083333" y1="107.916667" x2="210" y2="105"></line>
                            <line x1="207.083333" y1="141.325424" x2="210" y2="140.424576"></line>
                            <line x1="207.083333" y1="173.697475" x2="210" y2="174.552525"></line>
                            <line x1="207.083333" y1="207.083333" x2="210" y2="210"></line>
                            <line x1="207.083333" y1="241.5" x2="210" y2="246.166667"></line>
                            <line x1="207.083333" y1="274.166667" x2="210" y2="280.583333"></line>
                            <line x1="207.083333" y1="308" x2="210" y2="315"></line>
                            <line x1="241.5" y1="7" x2="246.166667" y2="0"></line>
                            <line x1="240.916667" y1="40.8333333" x2="245.583333" y2="34.4166667"></line>
                            <line x1="241.5" y1="73.5" x2="246.166667" y2="68.8333333"></line>
                            <line x1="241.5" y1="107.916667" x2="246.166667" y2="105"></line>
                            <line x1="241.5" y1="141.338811" x2="246.166667" y2="140.411189"></line>
                            <line x1="241.5" y1="173.699339" x2="246.166667" y2="174.550661"></line>
                            <line x1="241.5" y1="207.083333" x2="246.166667" y2="210"></line>
                            <line x1="241.5" y1="241.5" x2="246.166667" y2="246.166667"></line>
                            <line x1="241.5" y1="274.166667" x2="246.166667" y2="280.583333"></line>
                            <line x1="241.5" y1="308" x2="246.166667" y2="315"></line>
                            <line x1="274.166667" y1="8.16666667" x2="279.416667" y2="0"></line>
                            <line x1="274.166667" y1="40.8333333" x2="280.583333" y2="34.4166667"></line>
                            <line x1="274.166667" y1="73.5" x2="280.583333" y2="68.8333333"></line>
                            <line x1="274.166667" y1="107.916667" x2="280.583333" y2="105"></line>
                            <line x1="274.166667" y1="141.358945" x2="280.583333" y2="140.391055"></line>
                            <line x1="274.166667" y1="173.694456" x2="280.583333" y2="174.555544"></line>
                            <line x1="274.166667" y1="207.083333" x2="280.583333" y2="210"></line>
                            <line x1="274.166667" y1="241.5" x2="280.583333" y2="246.166667"></line>
                            <line x1="274.166667" y1="274.166667" x2="280.583333" y2="280.583333"></line>
                            <line x1="274.166667" y1="308" x2="280.583333" y2="315"></line>
                            <line x1="308" y1="7" x2="315" y2="0"></line>
                            <line x1="308" y1="40.8333333" x2="315" y2="34.4166667"></line>
                            <line x1="308" y1="73.5" x2="315" y2="68.8333333"></line>
                            <line x1="308" y1="107.916667" x2="315" y2="105"></line>
                            <line x1="308" y1="141.357816" x2="315" y2="140.392184"></line>
                            <line x1="308" y1="173.710889" x2="315" y2="174.539111"></line>
                            <line x1="308" y1="207.083333" x2="315" y2="210"></line>
                            <line x1="308" y1="241.5" x2="315" y2="246.166667"></line>
                            <line x1="306.833333" y1="274.166667" x2="315" y2="279.416667"></line>
                            <line x1="308" y1="308" x2="315" y2="315"></line>
                        </g>
                    </g>
                </g>
            </g>
        </g>
    </g>
</svg>