<?xml version="1.0" encoding="UTF-8"?>
<svg width="92px" height="64px" viewBox="0 0 92 64" version="1.1" xmlns="http://www.w3.org/2000/svg" xmlns:xlink="http://www.w3.org/1999/xlink">
    <title>F00A18F9-B056-4136-89BE-D750A1348E24</title>
    <defs>
        <linearGradient x1="0.34145542%" y1="50%" x2="100%" y2="50%" id="linearGradient-1">
            <stop stop-color="#9E75DD" stop-opacity="0" offset="0%"></stop>
            <stop stop-color="#9E75DD" offset="100%"></stop>
        </linearGradient>
    </defs>
    <g id="Moodboard" stroke="none" stroke-width="1" fill="none" fill-rule="evenodd">
        <g id="Mobile_ClientTestimonials_Detail" transform="translate(-159.000000, -1705.000000)">
            <g id="Body" transform="translate(-84.000000, 1081.000000)">
                <g id="Info" transform="translate(84.000000, 0.000000)">
                    <g id="Item" transform="translate(30.000000, 624.000000)">
                        <g id="Icon" transform="translate(129.000000, 0.000000)">
                            <circle id="Oval" fill="url(#linearGradient-1)" opacity="0.200000003" cx="60" cy="32" r="32"></circle>
                            <g id="content-marketing" transform="translate(0.000000, 4.000000)" fill-rule="nonzero">
                                <path d="M33.90625,56 L13.125,56 C5.887875,56 0,50.112125 0,42.875 L0,13.125 C0,5.887875 5.887875,0 13.125,0 L42.875,0 C50.112125,0 56,5.887875 56,13.125 L56,34.0703125 C56,35.2784688 55.0206563,36.2578125 53.8125,36.2578125 C52.6043437,36.2578125 51.625,35.2784688 51.625,34.0703125 L51.625,13.125 C51.625,8.30025 47.69975,4.375 42.875,4.375 L13.125,4.375 C8.30025,4.375 4.375,8.30025 4.375,13.125 L4.375,42.875 C4.375,47.69975 8.30025,51.625 13.125,51.625 L33.90625,51.625 C35.1144063,51.625 36.09375,52.6043437 36.09375,53.8125 C36.09375,55.0206563 35.1144063,56 33.90625,56 Z M53.6614531,53.6613438 C56.7744844,50.5483125 56.7744844,45.4829375 53.6614531,42.3697969 L45.9932813,34.7017344 C43.7770156,32.4853594 40.9809531,30.9893281 37.907625,30.3749687 L31.71,29.1361875 C30.9931563,28.9925781 30.2515938,29.2173437 29.7344688,29.7344687 C29.2173438,30.2517031 28.9929063,30.9929375 29.1361875,31.7101094 L30.3749688,37.9077344 C30.9893281,40.9811719 32.4854688,43.7770156 34.701625,45.9933906 L42.3697969,53.6614531 C43.8778594,55.1694062 45.8829219,56 48.015625,56 C50.1483281,56 52.1533906,55.1694062 53.6614531,53.6613437 L53.6614531,53.6613438 Z M37.050125,34.6650937 C39.2736094,35.1094844 41.2962812,36.19175 42.8996094,37.7951875 L50.5677812,45.46325 C51.9751094,46.8705781 51.9751094,49.1604531 50.5677812,50.5677812 C49.8861562,51.2495156 48.9796562,51.625 48.015625,51.625 C47.0515937,51.625 46.1450938,51.2495156 45.4634687,50.5677812 L37.7952969,42.8997187 C36.1919688,41.2962812 35.1095938,39.2736094 34.6652031,37.0502344 L34.0694375,34.0694375 L37.050125,34.6650937 Z" id="Shape" fill="#22284C"></path>
                                <path d="M42.875,15.96875 L22.859375,15.96875 C21.6512188,15.96875 20.671875,14.9894062 20.671875,13.78125 C20.671875,12.5730938 21.6512188,11.59375 22.859375,11.59375 L42.875,11.59375 C44.0831563,11.59375 45.0625,12.5730938 45.0625,13.78125 C45.0625,14.9894062 44.0831563,15.96875 42.875,15.96875 Z M45.0625,22.53125 C45.0625,21.3230938 44.0831563,20.34375 42.875,20.34375 L13.125,20.34375 C11.9168438,20.34375 10.9375,21.3230938 10.9375,22.53125 C10.9375,23.7394062 11.9168438,24.71875 13.125,24.71875 L42.875,24.71875 C44.0831563,24.71875 45.0625,23.7394062 45.0625,22.53125 Z M23.1875,31.28125 C23.1875,30.0730938 22.2081562,29.09375 21,29.09375 L13.125,29.09375 C11.9168438,29.09375 10.9375,30.0730938 10.9375,31.28125 C10.9375,32.4894063 11.9168438,33.46875 13.125,33.46875 L21,33.46875 C22.2081562,33.46875 23.1875,32.4894063 23.1875,31.28125 Z M10.9375,13.5625 C10.9375,15.0726406 12.1617344,16.296875 13.671875,16.296875 C15.1820156,16.296875 16.40625,15.0726406 16.40625,13.5625 C16.40625,12.0523594 15.1820156,10.828125 13.671875,10.828125 C12.1617344,10.828125 10.9375,12.0523594 10.9375,13.5625 Z" id="Shape" fill="#9E75DD"></path>
                            </g>
                        </g>
                    </g>
                </g>
            </g>
        </g>
    </g>
</svg>